<mxfile host="app.diagrams.net" modified="2023-11-08T11:24:50.444Z" agent="5.0 (Windows NT 10.0; Win64; x64) AppleWebKit/537.36 (KHTML, like Gecko) Chrome/119.0.0.0 Safari/537.36" etag="3HJIr12ckggA-04jaR3F" version="21.0.6" type="github">
  <diagram name="Page-1" id="b7a7eaba-c6c5-6fbe-34ae-1d3a4219ac39">
    <mxGraphModel dx="1075" dy="474" grid="1" gridSize="10" guides="1" tooltips="1" connect="1" arrows="1" fold="1" page="1" pageScale="1.5" pageWidth="1169" pageHeight="826" background="none" math="0" shadow="0">
      <root>
        <mxCell id="0" style=";html=1;" />
        <mxCell id="1" style=";html=1;" parent="0" />
        <mxCell id="279d4c6e8b4f5ae2-2" value="" style="html=1;shadow=0;dashed=0;align=center;verticalAlign=middle;shape=mxgraph.arrows2.arrow;dy=0.5;dx=15;direction=north;notch=0;rounded=0;strokeWidth=1;fontSize=20;rotation=35;" parent="1" vertex="1">
          <mxGeometry x="594" y="604" width="20" height="240" as="geometry" />
        </mxCell>
        <mxCell id="279d4c6e8b4f5ae2-3" value="" style="html=1;shadow=0;dashed=0;align=center;verticalAlign=middle;shape=mxgraph.arrows2.arrow;dy=0.5;dx=15;direction=north;notch=0;rounded=0;strokeWidth=1;fontSize=20;rotation=35;" parent="1" vertex="1">
          <mxGeometry x="799" y="604" width="20" height="240" as="geometry" />
        </mxCell>
        <mxCell id="279d4c6e8b4f5ae2-4" value="" style="html=1;shadow=0;dashed=0;align=center;verticalAlign=middle;shape=mxgraph.arrows2.arrow;dy=0.5;dx=15;direction=north;notch=0;rounded=0;strokeWidth=1;fontSize=20;rotation=35;" parent="1" vertex="1">
          <mxGeometry x="1029" y="604" width="20" height="240" as="geometry" />
        </mxCell>
        <mxCell id="279d4c6e8b4f5ae2-5" value="" style="html=1;shadow=0;dashed=0;align=center;verticalAlign=middle;shape=mxgraph.arrows2.arrow;dy=0.5;dx=15;direction=north;notch=0;rounded=0;strokeWidth=1;fontSize=20;rotation=90;" parent="1" vertex="1">
          <mxGeometry x="624" y="84" width="20" height="1071" as="geometry" />
        </mxCell>
        <mxCell id="279d4c6e8b4f5ae2-6" value="" style="html=1;shadow=0;dashed=0;align=center;verticalAlign=middle;shape=mxgraph.arrows2.arrow;dy=0.5;dx=15;direction=north;notch=0;rounded=0;strokeWidth=1;fontSize=20;rotation=155;" parent="1" vertex="1">
          <mxGeometry x="430" y="384" width="20" height="240" as="geometry" />
        </mxCell>
        <mxCell id="279d4c6e8b4f5ae2-7" value="" style="html=1;shadow=0;dashed=0;align=center;verticalAlign=middle;shape=mxgraph.arrows2.arrow;dy=0.5;dx=15;direction=north;notch=0;rounded=0;strokeWidth=1;fontSize=20;rotation=155;" parent="1" vertex="1">
          <mxGeometry x="810.6" y="351.64" width="20" height="275" as="geometry" />
        </mxCell>
        <mxCell id="279d4c6e8b4f5ae2-8" value="" style="html=1;shadow=0;dashed=0;align=center;verticalAlign=middle;shape=mxgraph.arrows2.arrow;dy=0.5;dx=15;direction=north;notch=0;rounded=0;strokeWidth=1;fontSize=20;rotation=155;" parent="1" vertex="1">
          <mxGeometry x="1048" y="384" width="20" height="240" as="geometry" />
        </mxCell>
        <mxCell id="279d4c6e8b4f5ae2-9" value="Evenement" style="rounded=1;whiteSpace=wrap;html=1;shadow=1;strokeWidth=2;fontSize=20;" parent="1" vertex="1">
          <mxGeometry x="309" y="364" width="150" height="40" as="geometry" />
        </mxCell>
        <mxCell id="279d4c6e8b4f5ae2-10" value="Inscription" style="rounded=1;whiteSpace=wrap;html=1;shadow=1;strokeWidth=2;fontSize=20;" parent="1" vertex="1">
          <mxGeometry x="681.25" y="324" width="150" height="40" as="geometry" />
        </mxCell>
        <mxCell id="279d4c6e8b4f5ae2-11" value="Cell 3" style="rounded=1;whiteSpace=wrap;html=1;shadow=1;strokeWidth=2;fontSize=20;" parent="1" vertex="1">
          <mxGeometry x="939" y="364" width="150" height="40" as="geometry" />
        </mxCell>
        <mxCell id="279d4c6e8b4f5ae2-12" value="Cell 4" style="rounded=1;whiteSpace=wrap;html=1;shadow=1;strokeWidth=2;fontSize=20;" parent="1" vertex="1">
          <mxGeometry x="462" y="816" width="150" height="40" as="geometry" />
        </mxCell>
        <mxCell id="279d4c6e8b4f5ae2-13" value="Cell 5" style="rounded=1;whiteSpace=wrap;html=1;shadow=1;strokeWidth=2;fontSize=20;" parent="1" vertex="1">
          <mxGeometry x="672" y="816.0000000000001" width="150" height="40" as="geometry" />
        </mxCell>
        <mxCell id="279d4c6e8b4f5ae2-14" value="Cell 6" style="rounded=1;whiteSpace=wrap;html=1;shadow=1;strokeWidth=2;fontSize=20;" parent="1" vertex="1">
          <mxGeometry x="902" y="816" width="150" height="40" as="geometry" />
        </mxCell>
        <mxCell id="279d4c6e8b4f5ae2-15" value="" style="ellipse;whiteSpace=wrap;html=1;rounded=1;shadow=1;strokeWidth=2;fontSize=20;" parent="1" vertex="1">
          <mxGeometry x="1171" y="560" width="120" height="120" as="geometry" />
        </mxCell>
        <mxCell id="279d4c6e8b4f5ae2-16" value="Sélectionner par QR Code" style="html=1;shadow=0;dashed=0;align=center;verticalAlign=middle;shape=mxgraph.arrows2.arrow;dy=0.5;dx=15;direction=north;notch=0;rounded=0;strokeWidth=1;fontSize=20;rotation=90;horizontal=0;labelPosition=left;verticalLabelPosition=middle;" parent="1" vertex="1">
          <mxGeometry x="255.5" y="316.5" width="20" height="279" as="geometry" />
        </mxCell>
        <mxCell id="279d4c6e8b4f5ae2-17" value="Rechercher un inscrit sans QR Code" style="html=1;shadow=0;dashed=0;align=center;verticalAlign=middle;shape=mxgraph.arrows2.arrow;dy=0.5;dx=15;direction=north;notch=0;rounded=0;strokeWidth=1;fontSize=20;rotation=90;horizontal=0;labelPosition=left;verticalLabelPosition=middle;" parent="1" vertex="1">
          <mxGeometry x="632" y="329.89" width="20" height="349" as="geometry" />
        </mxCell>
        <mxCell id="279d4c6e8b4f5ae2-18" value="Event 3" style="html=1;shadow=0;dashed=0;align=center;verticalAlign=middle;shape=mxgraph.arrows2.arrow;dy=0.5;dx=15;direction=north;notch=0;rounded=0;strokeWidth=1;fontSize=20;rotation=90;horizontal=0;labelPosition=left;verticalLabelPosition=middle;" parent="1" vertex="1">
          <mxGeometry x="964" y="401" width="20" height="110" as="geometry" />
        </mxCell>
        <mxCell id="279d4c6e8b4f5ae2-19" value="Event 10" style="html=1;shadow=0;dashed=0;align=center;verticalAlign=middle;shape=mxgraph.arrows2.arrow;dy=0.5;dx=15;direction=north;notch=0;rounded=0;strokeWidth=1;fontSize=20;rotation=90;horizontal=0;labelPosition=left;verticalLabelPosition=middle;" parent="1" vertex="1">
          <mxGeometry x="506" y="706" width="20" height="110" as="geometry" />
        </mxCell>
        <mxCell id="279d4c6e8b4f5ae2-20" value="Event 11" style="html=1;shadow=0;dashed=0;align=center;verticalAlign=middle;shape=mxgraph.arrows2.arrow;dy=0.5;dx=15;direction=north;notch=0;rounded=0;strokeWidth=1;fontSize=20;rotation=90;horizontal=0;labelPosition=left;verticalLabelPosition=middle;" parent="1" vertex="1">
          <mxGeometry x="709" y="706" width="20" height="110" as="geometry" />
        </mxCell>
        <mxCell id="279d4c6e8b4f5ae2-21" value="Event 12" style="html=1;shadow=0;dashed=0;align=center;verticalAlign=middle;shape=mxgraph.arrows2.arrow;dy=0.5;dx=15;direction=north;notch=0;rounded=0;strokeWidth=1;fontSize=20;rotation=90;horizontal=0;labelPosition=left;verticalLabelPosition=middle;" parent="1" vertex="1">
          <mxGeometry x="940" y="706" width="20" height="110" as="geometry" />
        </mxCell>
        <mxCell id="279d4c6e8b4f5ae2-22" value="Gérer le statut (actif, clos etc.)" style="html=1;shadow=0;dashed=0;align=center;verticalAlign=middle;shape=mxgraph.arrows2.arrow;dy=0.5;dx=15;direction=north;notch=0;rounded=0;strokeWidth=1;fontSize=20;rotation=90;horizontal=0;labelPosition=left;verticalLabelPosition=middle;" parent="1" vertex="1">
          <mxGeometry x="289" y="420" width="20" height="335" as="geometry" />
        </mxCell>
        <mxCell id="279d4c6e8b4f5ae2-23" value="Changer son statut" style="html=1;shadow=0;dashed=0;align=center;verticalAlign=middle;shape=mxgraph.arrows2.arrow;dy=0.5;dx=15;direction=north;notch=0;rounded=0;strokeWidth=1;fontSize=20;rotation=90;horizontal=0;labelPosition=left;verticalLabelPosition=middle;" parent="1" vertex="1">
          <mxGeometry x="661.25" y="339.64" width="20" height="247.5" as="geometry" />
        </mxCell>
        <mxCell id="279d4c6e8b4f5ae2-24" value="Event 6" style="html=1;shadow=0;dashed=0;align=center;verticalAlign=middle;shape=mxgraph.arrows2.arrow;dy=0.5;dx=15;direction=north;notch=0;rounded=0;strokeWidth=1;fontSize=20;rotation=90;horizontal=0;labelPosition=left;verticalLabelPosition=middle;" parent="1" vertex="1">
          <mxGeometry x="1004" y="485" width="20" height="110" as="geometry" />
        </mxCell>
        <mxCell id="279d4c6e8b4f5ae2-25" value="Event 7" style="html=1;shadow=0;dashed=0;align=center;verticalAlign=middle;shape=mxgraph.arrows2.arrow;dy=0.5;dx=15;direction=north;notch=0;rounded=0;strokeWidth=1;fontSize=20;rotation=90;horizontal=0;labelPosition=left;verticalLabelPosition=middle;" parent="1" vertex="1">
          <mxGeometry x="557" y="635" width="20" height="110" as="geometry" />
        </mxCell>
        <mxCell id="279d4c6e8b4f5ae2-26" value="Event 8" style="html=1;shadow=0;dashed=0;align=center;verticalAlign=middle;shape=mxgraph.arrows2.arrow;dy=0.5;dx=15;direction=north;notch=0;rounded=0;strokeWidth=1;fontSize=20;rotation=90;horizontal=0;labelPosition=left;verticalLabelPosition=middle;" parent="1" vertex="1">
          <mxGeometry x="760" y="635" width="20" height="110" as="geometry" />
        </mxCell>
        <mxCell id="279d4c6e8b4f5ae2-27" value="Event 9" style="html=1;shadow=0;dashed=0;align=center;verticalAlign=middle;shape=mxgraph.arrows2.arrow;dy=0.5;dx=15;direction=north;notch=0;rounded=0;strokeWidth=1;fontSize=20;rotation=90;horizontal=0;labelPosition=left;verticalLabelPosition=middle;" parent="1" vertex="1">
          <mxGeometry x="991" y="635" width="20" height="110" as="geometry" />
        </mxCell>
        <mxCell id="BgNtMRz4Lzl-_mLBwiGy-1" value="Switch d&#39;un à un autre" style="html=1;shadow=0;dashed=0;align=center;verticalAlign=middle;shape=mxgraph.arrows2.arrow;dy=0.5;dx=15;direction=north;notch=0;rounded=0;strokeWidth=1;fontSize=20;rotation=90;horizontal=0;labelPosition=left;verticalLabelPosition=middle;" vertex="1" parent="1">
          <mxGeometry x="260" y="371" width="20" height="335" as="geometry" />
        </mxCell>
        <mxCell id="BgNtMRz4Lzl-_mLBwiGy-2" value="Disposer d&#39;un historique d&#39;Evt" style="html=1;shadow=0;dashed=0;align=center;verticalAlign=middle;shape=mxgraph.arrows2.arrow;dy=0.5;dx=15;direction=north;notch=0;rounded=0;strokeWidth=1;fontSize=20;rotation=90;horizontal=0;labelPosition=left;verticalLabelPosition=middle;" vertex="1" parent="1">
          <mxGeometry x="240" y="330" width="20" height="335" as="geometry" />
        </mxCell>
        <mxCell id="BgNtMRz4Lzl-_mLBwiGy-3" value="Scanner le QR Code de présence" style="html=1;shadow=0;dashed=0;align=center;verticalAlign=middle;shape=mxgraph.arrows2.arrow;dy=0.5;dx=15;direction=north;notch=0;rounded=0;strokeWidth=1;fontSize=20;rotation=90;horizontal=0;labelPosition=left;verticalLabelPosition=middle;" vertex="1" parent="1">
          <mxGeometry x="603.5" y="257.39" width="20" height="349" as="geometry" />
        </mxCell>
        <mxCell id="BgNtMRz4Lzl-_mLBwiGy-4" value="Ajouter un non inscrit DE" style="html=1;shadow=0;dashed=0;align=center;verticalAlign=middle;shape=mxgraph.arrows2.arrow;dy=0.5;dx=15;direction=north;notch=0;rounded=0;strokeWidth=1;fontSize=20;rotation=90;horizontal=0;labelPosition=left;verticalLabelPosition=middle;" vertex="1" parent="1">
          <mxGeometry x="652" y="371.89" width="20" height="349" as="geometry" />
        </mxCell>
        <mxCell id="BgNtMRz4Lzl-_mLBwiGy-5" value="Ajouter un non inscrit (sans espace)" style="html=1;shadow=0;dashed=0;align=center;verticalAlign=middle;shape=mxgraph.arrows2.arrow;dy=0.5;dx=15;direction=north;notch=0;rounded=0;strokeWidth=1;fontSize=20;rotation=90;horizontal=0;labelPosition=left;verticalLabelPosition=middle;" vertex="1" parent="1">
          <mxGeometry x="672" y="413" width="20" height="349" as="geometry" />
        </mxCell>
      </root>
    </mxGraphModel>
  </diagram>
</mxfile>
